<svg width="95" height="94" viewBox="0 0 95 94" fill="none" xmlns="http://www.w3.org/2000/svg">
<g clip-path="url(#clip0_102_12)">
<path d="M87.0833 9.79167H8.90625L15.8042 85.136L47.9948 94L80.1854 85.136L87.0833 9.79167Z" fill="#E65100"/>
<path d="M47.5 16.6458V87.1458L74.1971 80.0737L80.1562 16.6458H47.5Z" fill="#FF6D00"/>
<path d="M47.5 54.0004V45.1391H67.851L66.1945 70.6152L47.5 76.375V67.0707L57.2022 63.9693L57.9121 54.0004H47.5ZM68.5609 36.2779L69.2708 27.4167H47.5V36.2779H68.5609Z" fill="white"/>
<path d="M47.5 67.0707V76.375L29.4591 70.6152L28.5457 58.431H37.6803L38.137 63.9693L47.5 67.0707ZM36.3101 36.2779H47.5V27.4167H26.7188L28.3173 54.0004H47.5V45.1391H36.9952L36.3101 36.2779Z" fill="#EEEEEE"/>
</g>
<defs>
<clipPath id="clip0_102_12">
<rect width="95" height="94" fill="white"/>
</clipPath>
</defs>
</svg>
