<svg width="96" height="96" viewBox="0 0 96 96" fill="none" xmlns="http://www.w3.org/2000/svg">
<path d="M95 12L87.8944 86.6914L55.9517 95L24.0976 86.7032L17 12H95Z" fill="#2B59A1"/>
<path d="M81.0793 82.3594L87 19H56V89L81.0793 82.3594Z" fill="#2785BD"/>
<path d="M55.8445 47L57 51L55.8445 55H33.8204L33 47H55.8445Z" fill="#D9EEFF"/>
<path d="M55.833 28L57 32.5L55.833 37H31.8414L31 28H55.833Z" fill="#D9EEFF"/>
<path d="M57 74.5748L55.8271 80L35.3605 74.586L34 60H44.0046L44.6849 67.2201L55.8271 70.0903L57 74.5748Z" fill="#D9EEFF"/>
<path d="M56.0095 28V36.6957H70.0986L69.1486 46.4783H56.0095C55.9989 46.4761 56 55.1739 56 55.1739H68.3423L67.1334 67.6087L56.0095 70.3913V80L76.4916 74.75L76.6328 73.1848L78.9871 48.8696L79.2343 46.3804L81 28H56.0095Z" fill="#F2F2F2"/>
</svg>
